<svg width="105" height="27" viewBox="0 0 105 27" fill="none" xmlns="http://www.w3.org/2000/svg">
<path d="M2.75863 26C2.36263 26 2.04363 25.89 1.80163 25.67C1.58163 25.428 1.47163 25.109 1.47163 24.713V9.236C1.47163 8.84 1.58163 8.532 1.80163 8.312C2.04363 8.07 2.36263 7.949 2.75863 7.949C3.13263 7.949 3.42963 8.07 3.64963 8.312C3.89163 8.532 4.01263 8.84 4.01263 9.236V24.713C4.01263 25.109 3.89163 25.428 3.64963 25.67C3.42963 25.89 3.13263 26 2.75863 26ZM2.72563 4.517C2.24163 4.517 1.82363 4.341 1.47163 3.989C1.11963 3.637 0.943633 3.208 0.943633 2.702C0.943633 2.152 1.11963 1.723 1.47163 1.415C1.84563 1.085 2.27463 0.919998 2.75863 0.919998C3.22063 0.919998 3.62763 1.085 3.97963 1.415C4.35363 1.723 4.54063 2.152 4.54063 2.702C4.54063 3.208 4.36463 3.637 4.01263 3.989C3.66063 4.341 3.23163 4.517 2.72563 4.517ZM12.2284 19.961L10.6774 18.278L21.9634 8.081C22.2274 7.839 22.5024 7.729 22.7884 7.751C23.0744 7.751 23.3384 7.883 23.5804 8.147C23.8224 8.411 23.9324 8.697 23.9104 9.005C23.9104 9.291 23.7784 9.544 23.5144 9.764L12.2284 19.961ZM11.4034 26C11.0294 26 10.7214 25.89 10.4794 25.67C10.2594 25.428 10.1494 25.12 10.1494 24.746V1.481C10.1494 1.107 10.2594 0.809998 10.4794 0.589999C10.7214 0.347999 11.0294 0.226999 11.4034 0.226999C11.7774 0.226999 12.0744 0.347999 12.2944 0.589999C12.5364 0.809998 12.6574 1.107 12.6574 1.481V24.746C12.6574 25.12 12.5364 25.428 12.2944 25.67C12.0744 25.89 11.7774 26 11.4034 26ZM23.6134 25.835C23.3274 26.077 23.0304 26.176 22.7224 26.132C22.4144 26.11 22.1504 25.956 21.9304 25.67L14.5714 16.628L16.3534 15.044L23.7784 24.185C23.9984 24.449 24.0974 24.735 24.0754 25.043C24.0534 25.329 23.8994 25.593 23.6134 25.835ZM30.5158 26C30.1198 26 29.8008 25.89 29.5588 25.67C29.3388 25.428 29.2288 25.109 29.2288 24.713V9.236C29.2288 8.84 29.3388 8.532 29.5588 8.312C29.8008 8.07 30.1198 7.949 30.5158 7.949C30.8898 7.949 31.1868 8.07 31.4068 8.312C31.6488 8.532 31.7698 8.84 31.7698 9.236V24.713C31.7698 25.109 31.6488 25.428 31.4068 25.67C31.1868 25.89 30.8898 26 30.5158 26ZM30.4828 4.517C29.9988 4.517 29.5808 4.341 29.2288 3.989C28.8768 3.637 28.7008 3.208 28.7008 2.702C28.7008 2.152 28.8768 1.723 29.2288 1.415C29.6028 1.085 30.0318 0.919998 30.5158 0.919998C30.9778 0.919998 31.3848 1.085 31.7368 1.415C32.1108 1.723 32.2978 2.152 32.2978 2.702C32.2978 3.208 32.1218 3.637 31.7698 3.989C31.4178 4.341 30.9888 4.517 30.4828 4.517ZM53.3835 26C53.0095 26 52.7015 25.879 52.4595 25.637C52.2175 25.395 52.0965 25.098 52.0965 24.746V16.166C52.0965 14.802 51.8325 13.68 51.3045 12.8C50.7985 11.92 50.0945 11.26 49.1925 10.82C48.3125 10.38 47.3115 10.16 46.1895 10.16C45.1115 10.16 44.1325 10.369 43.2525 10.787C42.3945 11.205 41.7125 11.777 41.2065 12.503C40.7005 13.229 40.4475 14.054 40.4475 14.978H38.6325C38.6765 13.592 39.0505 12.36 39.7545 11.282C40.4585 10.182 41.3935 9.324 42.5595 8.708C43.7255 8.07 45.0235 7.751 46.4535 7.751C48.0155 7.751 49.4125 8.081 50.6445 8.741C51.8765 9.379 52.8445 10.325 53.5485 11.579C54.2745 12.833 54.6375 14.362 54.6375 16.166V24.746C54.6375 25.098 54.5165 25.395 54.2745 25.637C54.0325 25.879 53.7355 26 53.3835 26ZM39.1935 26C38.7975 26 38.4785 25.89 38.2365 25.67C38.0165 25.428 37.9065 25.12 37.9065 24.746V9.236C37.9065 8.84 38.0165 8.532 38.2365 8.312C38.4785 8.07 38.7975 7.949 39.1935 7.949C39.5675 7.949 39.8645 8.07 40.0845 8.312C40.3265 8.532 40.4475 8.84 40.4475 9.236V24.746C40.4475 25.12 40.3265 25.428 40.0845 25.67C39.8645 25.89 39.5675 26 39.1935 26ZM67.7602 26.198C66.1982 26.198 64.8012 25.879 63.5692 25.241C62.3372 24.581 61.3582 23.624 60.6322 22.37C59.9282 21.116 59.5762 19.587 59.5762 17.783V9.203C59.5762 8.851 59.6972 8.554 59.9392 8.312C60.1812 8.07 60.4782 7.949 60.8302 7.949C61.2042 7.949 61.5122 8.07 61.7542 8.312C61.9962 8.554 62.1172 8.851 62.1172 9.203V17.783C62.1172 19.147 62.3702 20.269 62.8762 21.149C63.4042 22.029 64.1082 22.689 64.9882 23.129C65.8902 23.569 66.9022 23.789 68.0242 23.789C69.1022 23.789 70.0702 23.58 70.9282 23.162C71.8082 22.744 72.5012 22.172 73.0072 21.446C73.5132 20.72 73.7662 19.895 73.7662 18.971H75.5812C75.5152 20.357 75.1302 21.6 74.4262 22.7C73.7442 23.778 72.8202 24.636 71.6542 25.274C70.4882 25.89 69.1902 26.198 67.7602 26.198ZM75.0202 26C74.6462 26 74.3382 25.89 74.0962 25.67C73.8762 25.428 73.7662 25.109 73.7662 24.713V9.203C73.7662 8.829 73.8762 8.532 74.0962 8.312C74.3382 8.07 74.6462 7.949 75.0202 7.949C75.3942 7.949 75.7022 8.07 75.9442 8.312C76.1862 8.532 76.3072 8.829 76.3072 9.203V24.713C76.3072 25.109 76.1862 25.428 75.9442 25.67C75.7022 25.89 75.3942 26 75.0202 26ZM83.9849 19.961L82.4339 18.278L93.7199 8.081C93.9839 7.839 94.2589 7.729 94.5449 7.751C94.8309 7.751 95.0949 7.883 95.3369 8.147C95.5789 8.411 95.6889 8.697 95.6669 9.005C95.6669 9.291 95.5349 9.544 95.2709 9.764L83.9849 19.961ZM83.1599 26C82.7859 26 82.4779 25.89 82.2359 25.67C82.0159 25.428 81.9059 25.12 81.9059 24.746V1.481C81.9059 1.107 82.0159 0.809998 82.2359 0.589999C82.4779 0.347999 82.7859 0.226999 83.1599 0.226999C83.5339 0.226999 83.8309 0.347999 84.0509 0.589999C84.2929 0.809998 84.4139 1.107 84.4139 1.481V24.746C84.4139 25.12 84.2929 25.428 84.0509 25.67C83.8309 25.89 83.5339 26 83.1599 26ZM95.3699 25.835C95.0839 26.077 94.7869 26.176 94.4789 26.132C94.1709 26.11 93.9069 25.956 93.6869 25.67L86.3279 16.628L88.1099 15.044L95.5349 24.185C95.7549 24.449 95.8539 24.735 95.8319 25.043C95.8099 25.329 95.6559 25.593 95.3699 25.835ZM102.272 26C101.876 26 101.557 25.89 101.315 25.67C101.095 25.428 100.985 25.109 100.985 24.713V9.236C100.985 8.84 101.095 8.532 101.315 8.312C101.557 8.07 101.876 7.949 102.272 7.949C102.646 7.949 102.943 8.07 103.163 8.312C103.405 8.532 103.526 8.84 103.526 9.236V24.713C103.526 25.109 103.405 25.428 103.163 25.67C102.943 25.89 102.646 26 102.272 26ZM102.239 4.517C101.755 4.517 101.337 4.341 100.985 3.989C100.633 3.637 100.457 3.208 100.457 2.702C100.457 2.152 100.633 1.723 100.985 1.415C101.359 1.085 101.788 0.919998 102.272 0.919998C102.734 0.919998 103.141 1.085 103.493 1.415C103.867 1.723 104.054 2.152 104.054 2.702C104.054 3.208 103.878 3.637 103.526 3.989C103.174 4.341 102.745 4.517 102.239 4.517Z" fill="#50555C"/>
</svg>
